<svg width="58" height="59" viewBox="0 0 58 59" fill="none" xmlns="http://www.w3.org/2000/svg">
<g clip-path="url(#clip0_80_12)">
<rect width="57.8701" height="58.962" rx="17.9472" fill="white"/>
<path d="M8.26704 3.6853C3.70718 3.6853 -0.00012207 6.9904 -0.00012207 11.0556V47.9068C-0.00012207 51.972 3.70718 55.2771 8.26704 55.2771H20.952V38.4867H14.1316V29.4812H20.952V25.6003C20.952 15.5698 26.0414 10.9174 37.0988 10.9174C39.1914 10.9174 42.8083 11.2859 44.2938 11.6544V19.8077C43.5187 19.7386 42.1624 19.6926 40.4702 19.6926C35.0449 19.6926 32.9523 21.5236 32.9523 26.2797V29.4812H43.7513L41.8911 38.4867H32.9394V55.2771H49.6029C54.1627 55.2771 57.87 51.972 57.87 47.9068V11.0556C57.87 6.9904 54.1627 3.6853 49.6029 3.6853H8.26704Z" fill="#E8601B"/>
</g>
<defs>
<clipPath id="clip0_80_12">
<rect width="57.8701" height="58.962" rx="17.9472" fill="white"/>
</clipPath>
</defs>
</svg>
