<svg width="58" height="59" viewBox="0 0 58 59" fill="none" xmlns="http://www.w3.org/2000/svg">
<g clip-path="url(#clip0_81_18)">
<rect width="57.8701" height="58.962" rx="17.9472" fill="white"/>
<path d="M5.42533 7.37085C2.43009 7.37085 0 9.84679 0 12.8985C0 14.6375 0.802496 16.2727 2.17013 17.3207L26.7649 36.1148C28.0535 37.0937 29.8167 37.0937 31.1052 36.1148L55.7 17.3207C57.0676 16.2727 57.8701 14.6375 57.8701 12.8985C57.8701 9.84679 55.44 7.37085 52.4448 7.37085H5.42533ZM0 20.2688V44.2221C0 48.2873 3.24389 51.5924 7.23377 51.5924H50.6364C54.6263 51.5924 57.8701 48.2873 57.8701 44.2221V20.2688L33.2753 39.0629C30.6983 41.0322 27.1718 41.0322 24.5948 39.0629L0 20.2688Z" fill="#E8601B"/>
</g>
<defs>
<clipPath id="clip0_81_18">
<rect width="57.8701" height="58.962" rx="17.9472" fill="white"/>
</clipPath>
</defs>
</svg>
