<svg width="58" height="59" viewBox="0 0 58 59" fill="none" xmlns="http://www.w3.org/2000/svg">
<g clip-path="url(#clip0_80_10)">
<rect width="57.8701" height="58.962" rx="17.9472" fill="white"/>
<path d="M53.7366 3.6853H4.12066C1.84719 3.6853 0 5.35513 0 7.40498V51.5574C0 53.6073 1.84719 55.2771 4.12066 55.2771H53.7366C56.01 55.2771 57.8701 53.6073 57.8701 51.5574V7.40498C57.8701 5.35513 56.01 3.6853 53.7366 3.6853ZM17.4902 47.9068H8.91304V23.2856H17.5031V47.9068H17.4902ZM13.2016 19.9229C10.4502 19.9229 8.22841 17.9306 8.22841 15.4892C8.22841 13.0478 10.4502 11.0556 13.2016 11.0556C15.9401 11.0556 18.1748 13.0478 18.1748 15.4892C18.1748 17.9421 15.953 19.9229 13.2016 19.9229ZM49.6417 47.9068H41.0645V35.9302C41.0645 33.0742 41 29.4006 36.608 29.4006C32.1386 29.4006 31.454 32.5099 31.454 35.7229V47.9068H22.8768V23.2856H31.1052V26.6482H31.2215C32.3711 24.7136 35.1742 22.6752 39.3465 22.6752C48.0271 22.6752 49.6417 27.7768 49.6417 34.41V47.9068Z" fill="#E8601B"/>
</g>
<defs>
<clipPath id="clip0_80_10">
<rect width="57.8701" height="58.962" rx="17.9472" fill="white"/>
</clipPath>
</defs>
</svg>
