<svg width="58" height="59" viewBox="0 0 58 59" fill="none" xmlns="http://www.w3.org/2000/svg">
<g clip-path="url(#clip0_80_14)">
<rect width="57.8701" height="58.962" rx="17.9472" fill="white"/>
<path d="M57.8701 11.0556C57.8701 6.9904 54.1628 3.6853 49.603 3.6853H8.26716C3.70731 3.6853 0 6.9904 0 11.0556V47.9068C0 51.972 3.70731 55.2771 8.26716 55.2771H49.603C54.1628 55.2771 57.8701 51.972 57.8701 47.9068V11.0556ZM34.3346 46.951C34.3346 46.7437 34.3346 46.26 34.3475 45.6151C34.3604 44.3023 34.3604 42.2985 34.3604 40.5826C34.3604 39.1681 35.4438 36.8059 36.8217 36.4863C40.0858 35.7293 42.718 33.9481 42.718 28.629C42.718 27.8497 42.6019 27.2153 42.3857 26.6566C41.6983 24.8799 40.9606 23.7227 40.9384 21.8179C40.9224 20.4476 39.4689 18.7761 38.166 19.2007C37.795 19.3216 37.4171 19.4693 37.0509 19.6278C35.2867 20.391 33.3378 20.7006 31.4262 20.499C30.6262 20.4147 29.8169 20.372 29.0126 20.372C28.2094 20.372 27.4011 20.4146 26.6023 20.4987C24.6885 20.7002 22.7375 20.3902 20.9712 19.6264C20.5998 19.4659 20.2166 19.3163 19.8408 19.1947C18.5483 18.7764 17.1067 20.4285 17.0833 21.7868C17.0504 23.6998 16.3026 24.915 15.7448 26.7451C15.5811 27.2823 15.5009 27.8906 15.5009 28.629C15.5009 34.7151 18.8279 36.1733 22.695 36.7633C23.5678 36.8965 24.1232 38.1219 23.8741 38.9689C23.7766 39.3004 23.5352 39.6989 23.2059 39.8033C21.7615 40.261 19.1367 40.6061 17.4902 38.0146C16.6818 36.7631 15.4272 36.3016 14.7227 36.1354C14.3759 36.0536 14.0128 36.02 13.661 36.0761C13.5038 36.1012 13.3961 36.1403 13.3274 36.1891C12.5508 36.7417 14.5466 37.3718 15.1856 38.0789C15.7512 38.7048 16.1609 39.4583 16.3363 39.8092C16.4018 39.9402 16.4545 40.0782 16.5142 40.2121C17.1546 41.6472 18.6848 42.2056 20.1673 42.387C21.9819 42.609 23.6906 43.9712 23.6906 45.7994C23.6906 46.3522 23.7035 46.7898 23.7035 46.951C23.7035 47.4462 23.316 48.045 22.218 47.8723C13.6925 45.3272 7.72463 38.0952 7.72463 29.6424C7.72463 19.0707 16.7927 11.044 28.6509 11.044C40.5091 11.044 50.1197 19.0707 50.1197 29.6424C50.1326 38.0952 44.3456 45.3388 35.8201 47.8723C34.735 48.045 34.3346 47.4462 34.3346 46.951ZM22.6443 40.6402C22.6184 40.4675 22.7864 40.3178 23.0318 40.2717C23.2772 40.2487 23.5097 40.3408 23.5356 40.4905C23.5743 40.6402 23.4064 40.7899 23.1481 40.836C22.9026 40.8821 22.6701 40.7899 22.6443 40.6402ZM21.4688 41.0087C21.1846 41.0318 20.9908 40.9051 20.9908 40.7323C20.9908 40.5826 21.1846 40.456 21.443 40.456C21.6884 40.4329 21.9209 40.5596 21.9209 40.7323C21.9209 40.8821 21.7271 41.0087 21.4688 41.0087ZM19.6216 40.7554C19.3762 40.7093 19.2082 40.5366 19.2599 40.3869C19.3116 40.2372 19.5699 40.1681 19.7895 40.2141C20.0479 40.2832 20.2158 40.456 20.1512 40.6057C20.0995 40.7554 19.8412 40.8245 19.6216 40.7554ZM18.0069 39.9147C17.7134 39.6879 18.1034 39.2526 18.4006 39.4745C18.416 39.486 18.4312 39.4984 18.4461 39.5116C18.7159 39.7521 18.3581 40.1701 18.0639 39.9602C18.0445 39.9464 18.0255 39.9313 18.0069 39.9147ZM16.9089 38.7631C16.7668 38.5904 16.7668 38.3946 16.9089 38.314C17.051 38.2103 17.2706 38.2909 17.3869 38.4637C17.529 38.6364 17.529 38.8437 17.3869 38.9358C17.2706 39.0049 17.051 38.9358 16.9089 38.7631ZM16.0951 37.7497C15.953 37.6 15.9272 37.4272 16.0435 37.3466C16.1597 37.243 16.3535 37.3006 16.4956 37.4157C16.6377 37.5654 16.6635 37.7382 16.5472 37.8188C16.431 37.9224 16.2372 37.8649 16.0951 37.7497ZM15.3201 37.0127C15.3157 37.0109 15.3114 37.009 15.3071 37.0071C15.0722 36.9034 15.2451 36.5839 15.488 36.6672C15.6559 36.7478 15.7334 36.8745 15.6818 36.9666C15.6301 37.0702 15.4622 37.0933 15.3201 37.0127Z" fill="#E8601B"/>
</g>
<defs>
<clipPath id="clip0_80_14">
<rect width="57.8701" height="58.962" rx="17.9472" fill="white"/>
</clipPath>
</defs>
</svg>
