<svg width="71" height="71" viewBox="0 0 71 71" fill="none" xmlns="http://www.w3.org/2000/svg">
<path fill-rule="evenodd" clip-rule="evenodd" d="M61.5496 35.3908C61.5496 35.0947 61.3831 34.8698 61.0499 34.42C58.3279 30.7449 47.9202 17.8923 35.4966 17.8923C23.0729 17.8923 12.6653 30.7449 9.94318 34.42C9.61005 34.8698 9.44348 35.0947 9.44348 35.3908C9.44348 35.6869 9.61005 35.9118 9.94318 36.3616C12.6653 40.0367 23.0729 52.8893 35.4966 52.8893C47.9202 52.8893 58.3279 40.0367 61.0499 36.3616C61.3831 35.9118 61.5496 35.6869 61.5496 35.3908ZM35.4966 44.14C40.3287 44.14 44.2458 40.2228 44.2458 35.3908C44.2458 30.5587 40.3287 26.6415 35.4966 26.6415C30.6645 26.6415 26.7474 30.5587 26.7474 35.3908C26.7474 40.2228 30.6645 44.14 35.4966 44.14Z" fill="#E8601B"/>
</svg>
