<svg width="53" height="36" viewBox="0 0 53 36" fill="none" xmlns="http://www.w3.org/2000/svg">
<path fill-rule="evenodd" clip-rule="evenodd" d="M52.5496 18.3908C52.5496 18.0947 52.3831 17.8698 52.0499 17.42C49.3279 13.7449 38.9202 0.892334 26.4966 0.892334C14.0729 0.892334 3.66525 13.7449 0.943181 17.42C0.610048 17.8698 0.443481 18.0947 0.443481 18.3908C0.443481 18.6869 0.610048 18.9118 0.943182 19.3616C3.66525 23.0367 14.0729 35.8893 26.4966 35.8893C38.9202 35.8893 49.3279 23.0367 52.0499 19.3616C52.3831 18.9118 52.5496 18.6869 52.5496 18.3908ZM26.4966 27.14C31.3287 27.14 35.2458 23.2228 35.2458 18.3908C35.2458 13.5587 31.3287 9.64153 26.4966 9.64153C21.6645 9.64153 17.7474 13.5587 17.7474 18.3908C17.7474 23.2228 21.6645 27.14 26.4966 27.14Z" fill="#E8601B"/>
</svg>
